<svg width="396" height="213" viewBox="0 0 396 213" fill="none" xmlns="http://www.w3.org/2000/svg">
<rect x="0.475352" y="0.475352" width="394.542" height="196.796" rx="14.7359" stroke="#D9D9D9" stroke-width="0.950704"/>
<!-- <circle cx="373.627" cy="197.746" r="15.2113" fill="#E64848"/> -->
<rect x="366.497" y="191.567" width="14.2606" height="2.85211" stroke="white" stroke-width="0.950704" stroke-linecap="round" stroke-linejoin="round"/>
<path d="M378.856 196.32V203.926H368.398V196.32" stroke="white" stroke-width="0.950704" stroke-linecap="round" stroke-linejoin="round"/>
<rect x="371.25" y="197.271" width="4.75352" height="2.85211" stroke="white" stroke-width="0.950704" stroke-linecap="round" stroke-linejoin="round"/>
<!-- <circle cx="73.2042" cy="197.746" r="15.2113" fill="#E6E6E6"/> -->
<path d="M77.1656 196.954L73.9966 193.785" stroke="#12171E" stroke-width="0.950704" stroke-linecap="round" stroke-linejoin="round"/>
<!-- <path fill-rule="evenodd" clip-rule="evenodd" d="M71.2237 202.896L67.2625 203.688L68.0547 199.727L75.9772 191.804L79.1463 194.973L71.2237 202.896V202.896Z" stroke="#12171E" stroke-width="0.950704" stroke-linecap="round" stroke-linejoin="round"/> -->
<!-- <circle cx="36.1268" cy="197.746" r="15.2113" fill="url(#paint0_linear_148_4500)"/> -->
<path d="M35.718 192.584V202.092" stroke="white" stroke-width="0.950704" stroke-linecap="round" stroke-linejoin="round"/>
<path d="M40.4716 197.338H30.9646" stroke="white" stroke-width="0.950704" stroke-linecap="round" stroke-linejoin="round"/>
<path d="M39.061 161.134H362.681" stroke="#B0B0B0" stroke-width="0.299926"/>
<path d="M39.061 134.141H362.681" stroke="#B0B0B0" stroke-width="0.299926"/>
<path d="M39.061 107.147H362.681" stroke="#B0B0B0" stroke-width="0.299926"/>
<path d="M39.061 80.1533H362.681" stroke="#B0B0B0" stroke-width="0.299926"/>
<path d="M39.061 53.1606H362.681" stroke="#B0B0B0" stroke-width="0.299926"/>
<path d="M39.061 26.167H362.681" stroke="#B0B0B0" stroke-width="0.299926"/>
<path d="M47.759 26.167V169.832" stroke="#B0B0B0" stroke-width="0.299926"/>
<path d="M92.7478 26.167V169.832" stroke="#B0B0B0" stroke-width="0.299926"/>
<path d="M137.737 26.167V169.832" stroke="#B0B0B0" stroke-width="0.299926"/>
<path d="M182.726 26.167V169.832" stroke="#B0B0B0" stroke-width="0.299926"/>
<path d="M227.715 26.167V169.832" stroke="#B0B0B0" stroke-width="0.299926"/>
<path d="M272.704 26.167V169.832" stroke="#B0B0B0" stroke-width="0.299926"/>
<path d="M317.692 26.167V169.832" stroke="#B0B0B0" stroke-width="0.299926"/>
<path d="M26.1702 162.6V163.424C26.1702 163.868 26.1305 164.241 26.0513 164.546C25.9721 164.851 25.8582 165.096 25.7097 165.281C25.5611 165.467 25.3816 165.602 25.1712 165.686C24.9632 165.768 24.728 165.809 24.4656 165.809C24.2576 165.809 24.0657 165.783 23.89 165.731C23.7142 165.679 23.5557 165.596 23.4146 165.482C23.276 165.365 23.1571 165.214 23.0581 165.029C22.9591 164.843 22.8835 164.618 22.8316 164.353C22.7796 164.088 22.7536 163.778 22.7536 163.424V162.6C22.7536 162.157 22.7932 161.785 22.8724 161.486C22.9541 161.186 23.0692 160.946 23.2178 160.765C23.3663 160.582 23.5446 160.451 23.7525 160.372C23.963 160.293 24.1982 160.253 24.4581 160.253C24.6686 160.253 24.8617 160.279 25.0375 160.331C25.2157 160.38 25.3742 160.461 25.5128 160.572C25.6515 160.681 25.7691 160.827 25.8656 161.011C25.9647 161.191 26.0402 161.413 26.0922 161.675C26.1442 161.938 26.1702 162.246 26.1702 162.6ZM25.4794 163.536V162.485C25.4794 162.242 25.4646 162.029 25.4348 161.846C25.4076 161.66 25.3668 161.502 25.3123 161.371C25.2578 161.24 25.1885 161.133 25.1043 161.051C25.0226 160.97 24.9273 160.91 24.8184 160.873C24.7119 160.834 24.5918 160.814 24.4581 160.814C24.2947 160.814 24.1499 160.845 24.0236 160.907C23.8974 160.966 23.7909 161.061 23.7043 161.193C23.6201 161.324 23.5557 161.496 23.5112 161.709C23.4666 161.922 23.4443 162.18 23.4443 162.485V163.536C23.4443 163.778 23.4579 163.993 23.4852 164.178C23.5149 164.364 23.5582 164.525 23.6151 164.661C23.6721 164.795 23.7414 164.905 23.8231 164.992C23.9048 165.078 23.9989 165.143 24.1053 165.185C24.2143 165.224 24.3344 165.244 24.4656 165.244C24.6339 165.244 24.7812 165.212 24.9075 165.148C25.0338 165.083 25.139 164.983 25.2232 164.847C25.3098 164.708 25.3742 164.531 25.4163 164.316C25.4584 164.098 25.4794 163.838 25.4794 163.536Z" fill="#474747"/>
<path d="M24.1068 136.939H24.7195C25.0197 136.939 25.2673 136.89 25.4623 136.791C25.6603 136.689 25.8073 136.551 25.9033 136.378C26.0023 136.201 26.0518 136.003 26.0518 135.783C26.0518 135.523 26.0085 135.305 25.9219 135.129C25.8352 134.952 25.7052 134.819 25.5319 134.73C25.3586 134.64 25.1389 134.595 24.8727 134.595C24.6313 134.595 24.4178 134.643 24.2321 134.739C24.0495 134.832 23.9056 134.965 23.8004 135.138C23.6983 135.311 23.6472 135.516 23.6472 135.751H22.7884C22.7884 135.407 22.8751 135.095 23.0484 134.813C23.2217 134.532 23.4646 134.307 23.7772 134.14C24.0929 133.973 24.458 133.889 24.8727 133.889C25.2812 133.889 25.6387 133.962 25.9451 134.108C26.2514 134.25 26.4897 134.464 26.6599 134.748C26.8302 135.03 26.9153 135.381 26.9153 135.802C26.9153 135.972 26.875 136.155 26.7946 136.35C26.7172 136.542 26.595 136.721 26.4278 136.888C26.2638 137.055 26.0503 137.193 25.7872 137.301C25.5242 137.407 25.2085 137.459 24.8402 137.459H24.1068V136.939ZM24.1068 137.645V137.13H24.8402C25.2704 137.13 25.6263 137.181 25.9079 137.283C26.1895 137.385 26.4108 137.521 26.5717 137.691C26.7358 137.862 26.8503 138.049 26.9153 138.253C26.9833 138.454 27.0174 138.655 27.0174 138.857C27.0174 139.172 26.9632 139.452 26.8549 139.697C26.7497 139.941 26.5996 140.149 26.4046 140.319C26.2128 140.489 25.9868 140.617 25.7269 140.704C25.4669 140.791 25.1838 140.834 24.8774 140.834C24.5834 140.834 24.3064 140.792 24.0464 140.709C23.7896 140.625 23.5621 140.504 23.364 140.347C23.166 140.186 23.0112 139.989 22.8998 139.757C22.7884 139.522 22.7327 139.254 22.7327 138.954H23.5915C23.5915 139.189 23.6426 139.395 23.7447 139.571C23.8499 139.748 23.9985 139.886 24.1903 139.985C24.3853 140.08 24.6143 140.128 24.8774 140.128C25.1404 140.128 25.3663 140.084 25.5551 139.994C25.747 139.901 25.894 139.762 25.9961 139.576C26.1013 139.39 26.154 139.157 26.154 138.875C26.154 138.593 26.0952 138.363 25.9776 138.183C25.86 138.001 25.6928 137.866 25.4762 137.78C25.2627 137.69 25.0104 137.645 24.7195 137.645H24.1068Z" fill="#474747"/>
<path d="M23.9397 110.531L23.2526 110.355L23.5915 106.989H27.0592V107.783H24.3203L24.1161 109.621C24.2399 109.55 24.3961 109.483 24.5849 109.422C24.7768 109.36 24.9965 109.329 25.2441 109.329C25.5567 109.329 25.8367 109.383 26.0843 109.491C26.3319 109.596 26.5423 109.748 26.7157 109.946C26.8921 110.144 27.0267 110.383 27.1195 110.661C27.2124 110.94 27.2588 111.251 27.2588 111.594C27.2588 111.919 27.2139 112.218 27.1242 112.49C27.0375 112.762 26.906 113.001 26.7296 113.205C26.5532 113.406 26.3304 113.562 26.0611 113.674C25.795 113.785 25.4809 113.841 25.1188 113.841C24.8464 113.841 24.588 113.804 24.3435 113.729C24.1021 113.652 23.8855 113.536 23.6936 113.381C23.5049 113.223 23.3501 113.029 23.2294 112.796C23.1118 112.561 23.0376 112.286 23.0066 111.97H23.8236C23.8608 112.224 23.935 112.437 24.0464 112.611C24.1578 112.784 24.3033 112.916 24.4828 113.005C24.6654 113.092 24.8774 113.135 25.1188 113.135C25.323 113.135 25.5041 113.1 25.6619 113.029C25.8197 112.957 25.9528 112.855 26.0611 112.722C26.1694 112.589 26.2514 112.428 26.3071 112.239C26.3659 112.051 26.3953 111.839 26.3953 111.603C26.3953 111.39 26.3659 111.192 26.3071 111.009C26.2483 110.827 26.1601 110.667 26.0425 110.531C25.928 110.395 25.7872 110.29 25.6201 110.215C25.453 110.138 25.2611 110.099 25.0445 110.099C24.7567 110.099 24.5385 110.138 24.39 110.215C24.2445 110.293 24.0944 110.398 23.9397 110.531Z" fill="#474747"/>
<path d="M27.1149 84.9254C27.1149 85.337 27.0189 85.6867 26.8271 85.9745C26.6383 86.2592 26.3814 86.4759 26.0565 86.6244C25.7346 86.773 25.371 86.8472 24.9656 86.8472C24.5602 86.8472 24.195 86.773 23.87 86.6244C23.5451 86.4759 23.2882 86.2592 23.0994 85.9745C22.9107 85.6867 22.8163 85.337 22.8163 84.9254C22.8163 84.6562 22.8673 84.4101 22.9695 84.1873C23.0747 83.9614 23.2217 83.7649 23.4105 83.5978C23.6023 83.4306 23.8283 83.3022 24.0882 83.2125C24.3513 83.1196 24.6406 83.0732 24.9563 83.0732C25.371 83.0732 25.7408 83.1537 26.0658 83.3146C26.3907 83.4724 26.646 83.6906 26.8317 83.9691C27.0205 84.2477 27.1149 84.5664 27.1149 84.9254ZM26.2514 84.9068C26.2514 84.6562 26.1973 84.4349 26.089 84.243C25.9807 84.048 25.829 83.8964 25.634 83.7881C25.4391 83.6798 25.2132 83.6256 24.9563 83.6256C24.6932 83.6256 24.4658 83.6798 24.2739 83.7881C24.0851 83.8964 23.9381 84.048 23.8329 84.243C23.7277 84.4349 23.6751 84.6562 23.6751 84.9068C23.6751 85.1668 23.7261 85.3896 23.8283 85.5753C23.9335 85.7579 24.082 85.8987 24.2739 85.9977C24.4689 86.0937 24.6994 86.1416 24.9656 86.1416C25.2317 86.1416 25.4607 86.0937 25.6526 85.9977C25.8445 85.8987 25.9915 85.7579 26.0936 85.5753C26.1988 85.3896 26.2514 85.1668 26.2514 84.9068ZM26.957 81.7548C26.957 82.0829 26.8704 82.3784 26.6971 82.6415C26.5238 82.9045 26.287 83.1119 25.9868 83.2635C25.6867 83.4152 25.3462 83.491 24.9656 83.491C24.5787 83.491 24.2337 83.4152 23.9304 83.2635C23.6302 83.1119 23.395 82.9045 23.2248 82.6415C23.0546 82.3784 22.9695 82.0829 22.9695 81.7548C22.9695 81.3618 23.0546 81.0276 23.2248 80.7521C23.3981 80.4767 23.6348 80.2663 23.935 80.1208C24.2352 79.9754 24.5772 79.9026 24.9609 79.9026C25.3478 79.9026 25.6913 79.9754 25.9915 80.1208C26.2917 80.2663 26.5269 80.4767 26.6971 80.7521C26.8704 81.0276 26.957 81.3618 26.957 81.7548ZM26.0983 81.7688C26.0983 81.5429 26.0503 81.3432 25.9543 81.1699C25.8584 80.9966 25.7253 80.8605 25.5551 80.7614C25.3849 80.6593 25.1869 80.6082 24.9609 80.6082C24.735 80.6082 24.537 80.6562 24.3667 80.7521C24.1996 80.845 24.0681 80.9781 23.9722 81.1514C23.8793 81.3247 23.8329 81.5305 23.8329 81.7688C23.8329 82.0009 23.8793 82.2036 23.9722 82.3769C24.0681 82.5502 24.2012 82.6848 24.3714 82.7807C24.5416 82.8767 24.7397 82.9247 24.9656 82.9247C25.1915 82.9247 25.388 82.8767 25.5551 82.7807C25.7253 82.6848 25.8584 82.5502 25.9543 82.3769C26.0503 82.2036 26.0983 82.0009 26.0983 81.7688Z" fill="#474747"/>
<path d="M24.4519 52.9652V59.7612H23.5931V54.0375L21.8616 54.6688V53.8936L24.3173 52.9652H24.4519ZM31.2201 55.8433V56.8738C31.2201 57.4278 31.1706 57.8951 31.0716 58.2758C30.9725 58.6564 30.8302 58.9628 30.6445 59.1949C30.4588 59.427 30.2344 59.5957 29.9714 59.7009C29.7114 59.803 29.4174 59.8541 29.0894 59.8541C28.8294 59.8541 28.5896 59.8216 28.3699 59.7566C28.1501 59.6916 27.9521 59.5879 27.7757 59.4456C27.6024 59.3001 27.4538 59.1113 27.33 58.8792C27.2062 58.6471 27.1118 58.3655 27.0469 58.0344C26.9819 57.7032 26.9494 57.3164 26.9494 56.8738V55.8433C26.9494 55.2893 26.9989 54.8251 27.0979 54.4507C27.2 54.0762 27.3439 53.776 27.5296 53.5501C27.7153 53.3211 27.9381 53.1571 28.1981 53.058C28.4612 52.959 28.7552 52.9095 29.0801 52.9095C29.3432 52.9095 29.5845 52.942 29.8043 53.007C30.0271 53.0689 30.2252 53.1694 30.3985 53.3087C30.5718 53.4449 30.7188 53.6275 30.8395 53.8565C30.9632 54.0824 31.0576 54.3594 31.1226 54.6874C31.1876 55.0154 31.2201 55.4007 31.2201 55.8433ZM30.3567 57.0131V55.6994C30.3567 55.3961 30.3381 55.13 30.301 54.9009C30.2669 54.6688 30.2159 54.4708 30.1478 54.3068C30.0797 54.1427 29.993 54.0097 29.8878 53.9075C29.7857 53.8054 29.6666 53.7311 29.5304 53.6847C29.3973 53.6352 29.2472 53.6104 29.0801 53.6104C28.8758 53.6104 28.6948 53.6491 28.537 53.7265C28.3791 53.8008 28.2461 53.9199 28.1378 54.0839C28.0325 54.248 27.9521 54.463 27.8964 54.7292C27.8407 54.9953 27.8128 55.3187 27.8128 55.6994V57.0131C27.8128 57.3164 27.8298 57.5841 27.8639 57.8162C27.901 58.0483 27.9552 58.2494 28.0263 58.4197C28.0975 58.5868 28.1842 58.7245 28.2863 58.8328C28.3884 58.9411 28.506 59.0216 28.6391 59.0742C28.7753 59.1237 28.9254 59.1485 29.0894 59.1485C29.2998 59.1485 29.484 59.1082 29.6418 59.0278C29.7996 58.9473 29.9312 58.822 30.0364 58.6518C30.1447 58.4785 30.2252 58.2572 30.2778 57.9879C30.3304 57.7156 30.3567 57.3907 30.3567 57.0131Z" fill="#474747"/>
<path d="M24.4519 25.9715V32.7676H23.5931V27.0439L21.8616 27.6752V26.9L24.3173 25.9715H24.4519ZM31.5451 30.4929V31.1985H26.6616V30.6926L29.6882 26.0087H30.3892L29.6372 27.3642L27.6364 30.4929H31.5451ZM30.6027 26.0087V32.7676H29.7439V26.0087H30.6027Z" fill="#474747"/>
<path d="M63.5084 169.895V175.332H62.8213V170.753L61.4361 171.258V170.638L63.4007 169.895H63.5084ZM66.2119 174.756H66.2825C66.6786 174.756 67.0005 174.701 67.248 174.589C67.4956 174.478 67.6863 174.328 67.82 174.14C67.9536 173.952 68.0453 173.74 68.0948 173.505C68.1443 173.267 68.169 173.023 68.169 172.773V171.945C68.169 171.7 68.1406 171.482 68.0836 171.292C68.0292 171.101 67.9524 170.941 67.8534 170.812C67.7568 170.684 67.6466 170.586 67.5229 170.519C67.3991 170.452 67.2679 170.419 67.1292 170.419C66.9708 170.419 66.8284 170.451 66.7021 170.515C66.5783 170.577 66.4731 170.665 66.3865 170.779C66.3023 170.893 66.2379 171.027 66.1934 171.18C66.1488 171.334 66.1265 171.501 66.1265 171.681C66.1265 171.842 66.1463 171.998 66.1859 172.149C66.2255 172.3 66.2862 172.437 66.3679 172.558C66.4496 172.679 66.5511 172.776 66.6724 172.848C66.7962 172.917 66.941 172.952 67.1069 172.952C67.2604 172.952 67.404 172.922 67.5377 172.862C67.6739 172.801 67.794 172.718 67.8979 172.614C68.0044 172.507 68.0886 172.387 68.1505 172.253C68.2148 172.12 68.252 171.98 68.2619 171.834H68.5887C68.5887 172.039 68.5478 172.242 68.4661 172.443C68.3869 172.641 68.2755 172.822 68.1319 172.985C67.9883 173.148 67.82 173.28 67.6268 173.379C67.4337 173.475 67.2233 173.523 66.9955 173.523C66.7281 173.523 66.4966 173.471 66.3011 173.367C66.1055 173.264 65.9445 173.125 65.8183 172.952C65.6945 172.778 65.6016 172.585 65.5398 172.372C65.4803 172.157 65.4506 171.939 65.4506 171.719C65.4506 171.461 65.4865 171.22 65.5583 170.994C65.6301 170.769 65.7366 170.571 65.8777 170.4C66.0188 170.227 66.1934 170.092 66.4013 169.995C66.6118 169.899 66.8544 169.851 67.1292 169.851C67.4387 169.851 67.7024 169.913 67.9202 170.036C68.1381 170.16 68.3151 170.326 68.4513 170.534C68.5899 170.742 68.6914 170.976 68.7558 171.236C68.8202 171.496 68.8524 171.763 68.8524 172.038V172.287C68.8524 172.567 68.8338 172.851 68.7967 173.141C68.762 173.428 68.6939 173.703 68.5924 173.965C68.4934 174.228 68.3485 174.463 68.1579 174.671C67.9673 174.876 67.7184 175.04 67.4114 175.161C67.1069 175.28 66.7306 175.339 66.2825 175.339H66.2119V174.756ZM70.4901 174.756H70.5607C70.9568 174.756 71.2786 174.701 71.5262 174.589C71.7738 174.478 71.9644 174.328 72.0981 174.14C72.2318 173.952 72.3234 173.74 72.3729 173.505C72.4225 173.267 72.4472 173.023 72.4472 172.773V171.945C72.4472 171.7 72.4187 171.482 72.3618 171.292C72.3073 171.101 72.2306 170.941 72.1315 170.812C72.035 170.684 71.9248 170.586 71.801 170.519C71.6772 170.452 71.546 170.419 71.4074 170.419C71.2489 170.419 71.1066 170.451 70.9803 170.515C70.8565 170.577 70.7513 170.665 70.6646 170.779C70.5805 170.893 70.5161 171.027 70.4715 171.18C70.427 171.334 70.4047 171.501 70.4047 171.681C70.4047 171.842 70.4245 171.998 70.4641 172.149C70.5037 172.3 70.5644 172.437 70.6461 172.558C70.7278 172.679 70.8293 172.776 70.9506 172.848C71.0744 172.917 71.2192 172.952 71.3851 172.952C71.5386 172.952 71.6822 172.922 71.8159 172.862C71.9521 172.801 72.0721 172.718 72.1761 172.614C72.2826 172.507 72.3667 172.387 72.4286 172.253C72.493 172.12 72.5301 171.98 72.5401 171.834H72.8669C72.8669 172.039 72.826 172.242 72.7443 172.443C72.6651 172.641 72.5537 172.822 72.4101 172.985C72.2665 173.148 72.0981 173.28 71.905 173.379C71.7119 173.475 71.5015 173.523 71.2737 173.523C71.0063 173.523 70.7748 173.471 70.5792 173.367C70.3836 173.264 70.2227 173.125 70.0964 172.952C69.9727 172.778 69.8798 172.585 69.8179 172.372C69.7585 172.157 69.7288 171.939 69.7288 171.719C69.7288 171.461 69.7647 171.22 69.8365 170.994C69.9083 170.769 70.0147 170.571 70.1559 170.4C70.297 170.227 70.4715 170.092 70.6795 169.995C70.8899 169.899 71.1326 169.851 71.4074 169.851C71.7169 169.851 71.9805 169.913 72.1984 170.036C72.4163 170.16 72.5933 170.326 72.7295 170.534C72.8681 170.742 72.9696 170.976 73.034 171.236C73.0983 171.496 73.1305 171.763 73.1305 172.038V172.287C73.1305 172.567 73.112 172.851 73.0748 173.141C73.0402 173.428 72.9721 173.703 72.8706 173.965C72.7715 174.228 72.6267 174.463 72.4361 174.671C72.2454 174.876 71.9966 175.04 71.6896 175.161C71.3851 175.28 71.0088 175.339 70.5607 175.339H70.4901V174.756ZM74.9539 172.758L74.4043 172.617L74.6754 169.925H77.4495V170.56H75.2585L75.0951 172.031C75.1941 171.974 75.3191 171.92 75.4702 171.871C75.6237 171.821 75.7994 171.797 75.9975 171.797C76.2476 171.797 76.4716 171.84 76.6697 171.927C76.8677 172.011 77.0361 172.132 77.1747 172.291C77.3159 172.449 77.4236 172.64 77.4978 172.862C77.5721 173.085 77.6092 173.334 77.6092 173.609C77.6092 173.869 77.5733 174.108 77.5015 174.326C77.4322 174.543 77.327 174.734 77.1859 174.898C77.0448 175.058 76.8665 175.183 76.6511 175.273C76.4382 175.362 76.1869 175.406 75.8972 175.406C75.6794 175.406 75.4726 175.377 75.277 175.317C75.0839 175.255 74.9106 175.162 74.7571 175.039C74.6061 174.912 74.4823 174.756 74.3858 174.571C74.2917 174.383 74.2323 174.162 74.2075 173.91H74.8611C74.8908 174.113 74.9502 174.284 75.0394 174.422C75.1285 174.561 75.2449 174.666 75.3885 174.738C75.5345 174.807 75.7041 174.842 75.8972 174.842C76.0606 174.842 76.2055 174.813 76.3317 174.756C76.458 174.699 76.5645 174.618 76.6511 174.511C76.7378 174.405 76.8034 174.276 76.8479 174.125C76.895 173.974 76.9185 173.804 76.9185 173.616C76.9185 173.445 76.895 173.287 76.8479 173.141C76.8009 172.995 76.7303 172.867 76.6363 172.758C76.5446 172.65 76.432 172.565 76.2983 172.506C76.1646 172.444 76.0111 172.413 75.8378 172.413C75.6076 172.413 75.433 172.444 75.3142 172.506C75.1978 172.568 75.0777 172.652 74.9539 172.758Z" fill="#474747"/>
<path d="M111.378 174.768V175.332H107.839V174.838L109.61 172.866C109.828 172.624 109.996 172.418 110.115 172.25C110.236 172.079 110.321 171.927 110.368 171.793C110.417 171.657 110.442 171.518 110.442 171.377C110.442 171.199 110.405 171.038 110.331 170.894C110.259 170.748 110.152 170.632 110.011 170.545C109.87 170.458 109.699 170.415 109.499 170.415C109.258 170.415 109.058 170.462 108.897 170.556C108.739 170.648 108.62 170.777 108.541 170.942C108.461 171.108 108.422 171.299 108.422 171.514H107.735C107.735 171.21 107.801 170.931 107.935 170.679C108.069 170.426 108.267 170.226 108.529 170.077C108.792 169.926 109.115 169.851 109.499 169.851C109.84 169.851 110.132 169.911 110.375 170.033C110.618 170.151 110.803 170.32 110.932 170.538C111.063 170.753 111.129 171.006 111.129 171.295C111.129 171.454 111.102 171.615 111.047 171.778C110.995 171.939 110.922 172.1 110.828 172.261C110.737 172.422 110.629 172.58 110.505 172.736C110.384 172.892 110.254 173.046 110.115 173.197L108.667 174.768H111.378ZM115.507 172.198V173.022C115.507 173.465 115.468 173.839 115.389 174.144C115.309 174.448 115.195 174.693 115.047 174.879C114.898 175.065 114.719 175.2 114.508 175.284C114.3 175.365 114.065 175.406 113.803 175.406C113.595 175.406 113.403 175.38 113.227 175.328C113.051 175.276 112.893 175.193 112.752 175.08C112.613 174.963 112.494 174.812 112.395 174.626C112.296 174.441 112.221 174.215 112.169 173.951C112.117 173.686 112.091 173.376 112.091 173.022V172.198C112.091 171.755 112.13 171.383 112.21 171.084C112.291 170.784 112.406 170.544 112.555 170.363C112.704 170.18 112.882 170.049 113.09 169.969C113.3 169.89 113.535 169.851 113.795 169.851C114.006 169.851 114.199 169.877 114.375 169.929C114.553 169.978 114.711 170.059 114.85 170.17C114.989 170.279 115.106 170.425 115.203 170.608C115.302 170.789 115.377 171.011 115.429 171.273C115.481 171.535 115.507 171.844 115.507 172.198ZM114.817 173.134V172.083C114.817 171.84 114.802 171.627 114.772 171.444C114.745 171.258 114.704 171.1 114.65 170.968C114.595 170.837 114.526 170.731 114.442 170.649C114.36 170.567 114.265 170.508 114.156 170.471C114.049 170.431 113.929 170.411 113.795 170.411C113.632 170.411 113.487 170.442 113.361 170.504C113.235 170.564 113.128 170.659 113.042 170.79C112.957 170.921 112.893 171.093 112.848 171.306C112.804 171.519 112.782 171.778 112.782 172.083V173.134C112.782 173.376 112.795 173.59 112.822 173.776C112.852 173.962 112.895 174.123 112.952 174.259C113.009 174.392 113.079 174.503 113.16 174.589C113.242 174.676 113.336 174.74 113.443 174.782C113.552 174.822 113.672 174.842 113.803 174.842C113.971 174.842 114.118 174.81 114.245 174.745C114.371 174.681 114.476 174.581 114.56 174.444C114.647 174.306 114.711 174.129 114.754 173.913C114.796 173.696 114.817 173.436 114.817 173.134ZM119.786 172.198V173.022C119.786 173.465 119.746 173.839 119.667 174.144C119.587 174.448 119.474 174.693 119.325 174.879C119.177 175.065 118.997 175.2 118.787 175.284C118.579 175.365 118.343 175.406 118.081 175.406C117.873 175.406 117.681 175.38 117.505 175.328C117.33 175.276 117.171 175.193 117.03 175.08C116.891 174.963 116.773 174.812 116.673 174.626C116.574 174.441 116.499 174.215 116.447 173.951C116.395 173.686 116.369 173.376 116.369 173.022V172.198C116.369 171.755 116.409 171.383 116.488 171.084C116.57 170.784 116.685 170.544 116.833 170.363C116.982 170.18 117.16 170.049 117.368 169.969C117.578 169.89 117.814 169.851 118.074 169.851C118.284 169.851 118.477 169.877 118.653 169.929C118.831 169.978 118.99 170.059 119.128 170.17C119.267 170.279 119.384 170.425 119.481 170.608C119.58 170.789 119.656 171.011 119.708 171.273C119.76 171.535 119.786 171.844 119.786 172.198ZM119.095 173.134V172.083C119.095 171.84 119.08 171.627 119.05 171.444C119.023 171.258 118.982 171.1 118.928 170.968C118.873 170.837 118.804 170.731 118.72 170.649C118.638 170.567 118.543 170.508 118.434 170.471C118.327 170.431 118.207 170.411 118.074 170.411C117.91 170.411 117.765 170.442 117.639 170.504C117.513 170.564 117.406 170.659 117.32 170.79C117.235 170.921 117.171 171.093 117.127 171.306C117.082 171.519 117.06 171.778 117.06 172.083V173.134C117.06 173.376 117.073 173.59 117.101 173.776C117.13 173.962 117.174 174.123 117.231 174.259C117.287 174.392 117.357 174.503 117.439 174.589C117.52 174.676 117.614 174.74 117.721 174.782C117.83 174.822 117.95 174.842 118.081 174.842C118.249 174.842 118.397 174.81 118.523 174.745C118.649 174.681 118.754 174.581 118.839 174.444C118.925 174.306 118.99 174.129 119.032 173.913C119.074 173.696 119.095 173.436 119.095 173.134ZM122.927 169.895V175.332H122.24V170.753L120.855 171.258V170.638L122.82 169.895H122.927Z" fill="#474747"/>
<path d="M157.962 174.768V175.332H154.423V174.838L156.195 172.866C156.412 172.624 156.581 172.418 156.7 172.25C156.821 172.079 156.905 171.927 156.952 171.793C157.002 171.657 157.026 171.518 157.026 171.377C157.026 171.199 156.989 171.038 156.915 170.894C156.843 170.748 156.737 170.632 156.596 170.545C156.454 170.458 156.284 170.415 156.083 170.415C155.843 170.415 155.642 170.462 155.482 170.556C155.323 170.648 155.204 170.777 155.125 170.942C155.046 171.108 155.006 171.299 155.006 171.514H154.319C154.319 171.21 154.386 170.931 154.52 170.679C154.653 170.426 154.851 170.226 155.114 170.077C155.376 169.926 155.699 169.851 156.083 169.851C156.425 169.851 156.717 169.911 156.96 170.033C157.202 170.151 157.388 170.32 157.517 170.538C157.648 170.753 157.713 171.006 157.713 171.295C157.713 171.454 157.686 171.615 157.632 171.778C157.58 171.939 157.507 172.1 157.413 172.261C157.321 172.422 157.213 172.58 157.09 172.736C156.968 172.892 156.838 173.046 156.7 173.197L155.251 174.768H157.962ZM162.092 172.198V173.022C162.092 173.465 162.052 173.839 161.973 174.144C161.894 174.448 161.78 174.693 161.631 174.879C161.483 175.065 161.303 175.2 161.093 175.284C160.885 175.365 160.65 175.406 160.387 175.406C160.179 175.406 159.987 175.38 159.812 175.328C159.636 175.276 159.477 175.193 159.336 175.08C159.198 174.963 159.079 174.812 158.98 174.626C158.881 174.441 158.805 174.215 158.753 173.951C158.701 173.686 158.675 173.376 158.675 173.022V172.198C158.675 171.755 158.715 171.383 158.794 171.084C158.876 170.784 158.991 170.544 159.139 170.363C159.288 170.18 159.466 170.049 159.674 169.969C159.885 169.89 160.12 169.851 160.38 169.851C160.59 169.851 160.783 169.877 160.959 169.929C161.137 169.978 161.296 170.059 161.435 170.17C161.573 170.279 161.691 170.425 161.787 170.608C161.886 170.789 161.962 171.011 162.014 171.273C162.066 171.535 162.092 171.844 162.092 172.198ZM161.401 173.134V172.083C161.401 171.84 161.386 171.627 161.357 171.444C161.329 171.258 161.288 171.1 161.234 170.968C161.18 170.837 161.11 170.731 161.026 170.649C160.944 170.567 160.849 170.508 160.74 170.471C160.634 170.431 160.514 170.411 160.38 170.411C160.216 170.411 160.072 170.442 159.945 170.504C159.819 170.564 159.713 170.659 159.626 170.79C159.542 170.921 159.477 171.093 159.433 171.306C159.388 171.519 159.366 171.778 159.366 172.083V173.134C159.366 173.376 159.38 173.59 159.407 173.776C159.437 173.962 159.48 174.123 159.537 174.259C159.594 174.392 159.663 174.503 159.745 174.589C159.827 174.676 159.921 174.74 160.027 174.782C160.136 174.822 160.256 174.842 160.387 174.842C160.556 174.842 160.703 174.81 160.829 174.745C160.955 174.681 161.061 174.581 161.145 174.444C161.232 174.306 161.296 174.129 161.338 173.913C161.38 173.696 161.401 173.436 161.401 173.134ZM165.234 169.895V175.332H164.547V170.753L163.161 171.258V170.638L165.126 169.895H165.234ZM170.797 174.768V175.332H167.258V174.838L169.029 172.866C169.247 172.624 169.415 172.418 169.534 172.25C169.655 172.079 169.74 171.927 169.787 171.793C169.836 171.657 169.861 171.518 169.861 171.377C169.861 171.199 169.824 171.038 169.749 170.894C169.678 170.748 169.571 170.632 169.43 170.545C169.289 170.458 169.118 170.415 168.918 170.415C168.677 170.415 168.477 170.462 168.316 170.556C168.158 170.648 168.039 170.777 167.959 170.942C167.88 171.108 167.841 171.299 167.841 171.514H167.154C167.154 171.21 167.22 170.931 167.354 170.679C167.488 170.426 167.686 170.226 167.948 170.077C168.211 169.926 168.534 169.851 168.918 169.851C169.259 169.851 169.551 169.911 169.794 170.033C170.037 170.151 170.222 170.32 170.351 170.538C170.482 170.753 170.548 171.006 170.548 171.295C170.548 171.454 170.521 171.615 170.466 171.778C170.414 171.939 170.341 172.1 170.247 172.261C170.156 172.422 170.048 172.58 169.924 172.736C169.803 172.892 169.673 173.046 169.534 173.197L168.086 174.768H170.797Z" fill="#474747"/>
<path d="M201.695 174.768V175.332H198.156V174.838L199.927 172.866C200.145 172.624 200.313 172.418 200.432 172.25C200.553 172.079 200.638 171.927 200.685 171.793C200.734 171.657 200.759 171.518 200.759 171.377C200.759 171.199 200.722 171.038 200.647 170.894C200.576 170.748 200.469 170.632 200.328 170.545C200.187 170.458 200.016 170.415 199.816 170.415C199.575 170.415 199.375 170.462 199.214 170.556C199.055 170.648 198.937 170.777 198.857 170.942C198.778 171.108 198.739 171.299 198.739 171.514H198.052C198.052 171.21 198.118 170.931 198.252 170.679C198.386 170.426 198.584 170.226 198.846 170.077C199.109 169.926 199.432 169.851 199.816 169.851C200.157 169.851 200.449 169.911 200.692 170.033C200.935 170.151 201.12 170.32 201.249 170.538C201.38 170.753 201.446 171.006 201.446 171.295C201.446 171.454 201.419 171.615 201.364 171.778C201.312 171.939 201.239 172.1 201.145 172.261C201.053 172.422 200.946 172.58 200.822 172.736C200.701 172.892 200.571 173.046 200.432 173.197L198.984 174.768H201.695ZM205.824 172.198V173.022C205.824 173.465 205.785 173.839 205.705 174.144C205.626 174.448 205.512 174.693 205.364 174.879C205.215 175.065 205.036 175.2 204.825 175.284C204.617 175.365 204.382 175.406 204.12 175.406C203.912 175.406 203.72 175.38 203.544 175.328C203.368 175.276 203.21 175.193 203.069 175.08C202.93 174.963 202.811 174.812 202.712 174.626C202.613 174.441 202.538 174.215 202.486 173.951C202.434 173.686 202.408 173.376 202.408 173.022V172.198C202.408 171.755 202.447 171.383 202.527 171.084C202.608 170.784 202.723 170.544 202.872 170.363C203.02 170.18 203.199 170.049 203.407 169.969C203.617 169.89 203.852 169.851 204.112 169.851C204.323 169.851 204.516 169.877 204.692 169.929C204.87 169.978 205.028 170.059 205.167 170.17C205.306 170.279 205.423 170.425 205.52 170.608C205.619 170.789 205.694 171.011 205.746 171.273C205.798 171.535 205.824 171.844 205.824 172.198ZM205.134 173.134V172.083C205.134 171.84 205.119 171.627 205.089 171.444C205.062 171.258 205.021 171.1 204.966 170.968C204.912 170.837 204.843 170.731 204.758 170.649C204.677 170.567 204.581 170.508 204.473 170.471C204.366 170.431 204.246 170.411 204.112 170.411C203.949 170.411 203.804 170.442 203.678 170.504C203.552 170.564 203.445 170.659 203.358 170.79C203.274 170.921 203.21 171.093 203.165 171.306C203.121 171.519 203.098 171.778 203.098 172.083V173.134C203.098 173.376 203.112 173.59 203.139 173.776C203.169 173.962 203.212 174.123 203.269 174.259C203.326 174.392 203.396 174.503 203.477 174.589C203.559 174.676 203.653 174.74 203.759 174.782C203.868 174.822 203.988 174.842 204.12 174.842C204.288 174.842 204.435 174.81 204.562 174.745C204.688 174.681 204.793 174.581 204.877 174.444C204.964 174.306 205.028 174.129 205.07 173.913C205.112 173.696 205.134 173.436 205.134 173.134ZM208.966 169.895V175.332H208.279V170.753L206.894 171.258V170.638L208.858 169.895H208.966ZM214.641 173.512V174.077H210.734V173.672L213.155 169.925H213.716L213.114 171.009L211.514 173.512H214.641ZM213.887 169.925V175.332H213.2V169.925H213.887Z" fill="#474747"/>
<path d="M244.476 174.768V175.332H240.937V174.838L242.709 172.866C242.927 172.624 243.095 172.418 243.214 172.25C243.335 172.079 243.419 171.927 243.466 171.793C243.516 171.657 243.541 171.518 243.541 171.377C243.541 171.199 243.503 171.038 243.429 170.894C243.357 170.748 243.251 170.632 243.11 170.545C242.969 170.458 242.798 170.415 242.597 170.415C242.357 170.415 242.157 170.462 241.996 170.556C241.837 170.648 241.718 170.777 241.639 170.942C241.56 171.108 241.52 171.299 241.52 171.514H240.833C240.833 171.21 240.9 170.931 241.034 170.679C241.168 170.426 241.366 170.226 241.628 170.077C241.89 169.926 242.214 169.851 242.597 169.851C242.939 169.851 243.231 169.911 243.474 170.033C243.716 170.151 243.902 170.32 244.031 170.538C244.162 170.753 244.228 171.006 244.228 171.295C244.228 171.454 244.2 171.615 244.146 171.778C244.094 171.939 244.021 172.1 243.927 172.261C243.835 172.422 243.727 172.58 243.604 172.736C243.482 172.892 243.352 173.046 243.214 173.197L241.765 174.768H244.476ZM248.606 172.198V173.022C248.606 173.465 248.566 173.839 248.487 174.144C248.408 174.448 248.294 174.693 248.146 174.879C247.997 175.065 247.817 175.2 247.607 175.284C247.399 175.365 247.164 175.406 246.901 175.406C246.693 175.406 246.502 175.38 246.326 175.328C246.15 175.276 245.992 175.193 245.85 175.08C245.712 174.963 245.593 174.812 245.494 174.626C245.395 174.441 245.319 174.215 245.267 173.951C245.215 173.686 245.189 173.376 245.189 173.022V172.198C245.189 171.755 245.229 171.383 245.308 171.084C245.39 170.784 245.505 170.544 245.654 170.363C245.802 170.18 245.98 170.049 246.188 169.969C246.399 169.89 246.634 169.851 246.894 169.851C247.104 169.851 247.298 169.877 247.473 169.929C247.652 169.978 247.81 170.059 247.949 170.17C248.087 170.279 248.205 170.425 248.302 170.608C248.401 170.789 248.476 171.011 248.528 171.273C248.58 171.535 248.606 171.844 248.606 172.198ZM247.915 173.134V172.083C247.915 171.84 247.9 171.627 247.871 171.444C247.843 171.258 247.803 171.1 247.748 170.968C247.694 170.837 247.624 170.731 247.54 170.649C247.458 170.567 247.363 170.508 247.254 170.471C247.148 170.431 247.028 170.411 246.894 170.411C246.731 170.411 246.586 170.442 246.46 170.504C246.333 170.564 246.227 170.659 246.14 170.79C246.056 170.921 245.992 171.093 245.947 171.306C245.902 171.519 245.88 171.778 245.88 172.083V173.134C245.88 173.376 245.894 173.59 245.921 173.776C245.951 173.962 245.994 174.123 246.051 174.259C246.108 174.392 246.177 174.503 246.259 174.589C246.341 174.676 246.435 174.74 246.541 174.782C246.65 174.822 246.77 174.842 246.901 174.842C247.07 174.842 247.217 174.81 247.343 174.745C247.47 174.681 247.575 174.581 247.659 174.444C247.746 174.306 247.81 174.129 247.852 173.913C247.894 173.696 247.915 173.436 247.915 173.134ZM251.748 169.895V175.332H251.061V170.753L249.676 171.258V170.638L251.64 169.895H251.748ZM257.263 169.925V170.311L255.023 175.332H254.299L256.535 170.489H253.608V169.925H257.263Z" fill="#474747"/>
<path d="M336.695 174.768V175.332H333.156V174.838L334.927 172.866C335.145 172.624 335.313 172.418 335.432 172.25C335.553 172.079 335.638 171.927 335.685 171.793C335.734 171.657 335.759 171.518 335.759 171.377C335.759 171.199 335.722 171.038 335.647 170.894C335.576 170.748 335.469 170.632 335.328 170.545C335.187 170.458 335.016 170.415 334.816 170.415C334.575 170.415 334.375 170.462 334.214 170.556C334.055 170.648 333.937 170.777 333.857 170.942C333.778 171.108 333.739 171.299 333.739 171.514H333.052C333.052 171.21 333.118 170.931 333.252 170.679C333.386 170.426 333.584 170.226 333.846 170.077C334.109 169.926 334.432 169.851 334.816 169.851C335.157 169.851 335.449 169.911 335.692 170.033C335.935 170.151 336.12 170.32 336.249 170.538C336.38 170.753 336.446 171.006 336.446 171.295C336.446 171.454 336.419 171.615 336.364 171.778C336.312 171.939 336.239 172.1 336.145 172.261C336.053 172.422 335.946 172.58 335.822 172.736C335.701 172.892 335.571 173.046 335.432 173.197L333.984 174.768H336.695ZM340.824 172.198V173.022C340.824 173.465 340.785 173.839 340.705 174.144C340.626 174.448 340.512 174.693 340.364 174.879C340.215 175.065 340.036 175.2 339.825 175.284C339.617 175.365 339.382 175.406 339.12 175.406C338.912 175.406 338.72 175.38 338.544 175.328C338.368 175.276 338.21 175.193 338.069 175.08C337.93 174.963 337.811 174.812 337.712 174.626C337.613 174.441 337.538 174.215 337.486 173.951C337.434 173.686 337.408 173.376 337.408 173.022V172.198C337.408 171.755 337.447 171.383 337.527 171.084C337.608 170.784 337.723 170.544 337.872 170.363C338.02 170.18 338.199 170.049 338.407 169.969C338.617 169.89 338.852 169.851 339.112 169.851C339.323 169.851 339.516 169.877 339.692 169.929C339.87 169.978 340.028 170.059 340.167 170.17C340.306 170.279 340.423 170.425 340.52 170.608C340.619 170.789 340.694 171.011 340.746 171.273C340.798 171.535 340.824 171.844 340.824 172.198ZM340.134 173.134V172.083C340.134 171.84 340.119 171.627 340.089 171.444C340.062 171.258 340.021 171.1 339.966 170.968C339.912 170.837 339.843 170.731 339.758 170.649C339.677 170.567 339.581 170.508 339.473 170.471C339.366 170.431 339.246 170.411 339.112 170.411C338.949 170.411 338.804 170.442 338.678 170.504C338.552 170.564 338.445 170.659 338.358 170.79C338.274 170.921 338.21 171.093 338.165 171.306C338.121 171.519 338.098 171.778 338.098 172.083V173.134C338.098 173.376 338.112 173.59 338.139 173.776C338.169 173.962 338.212 174.123 338.269 174.259C338.326 174.392 338.396 174.503 338.477 174.589C338.559 174.676 338.653 174.74 338.759 174.782C338.868 174.822 338.988 174.842 339.12 174.842C339.288 174.842 339.435 174.81 339.562 174.745C339.688 174.681 339.793 174.581 339.877 174.444C339.964 174.306 340.028 174.129 340.07 173.913C340.112 173.696 340.134 173.436 340.134 173.134ZM345.251 174.768V175.332H341.712V174.838L343.483 172.866C343.701 172.624 343.87 172.418 343.988 172.25C344.11 172.079 344.194 171.927 344.241 171.793C344.29 171.657 344.315 171.518 344.315 171.377C344.315 171.199 344.278 171.038 344.204 170.894C344.132 170.748 344.025 170.632 343.884 170.545C343.743 170.458 343.572 170.415 343.372 170.415C343.132 170.415 342.931 170.462 342.77 170.556C342.612 170.648 342.493 170.777 342.414 170.942C342.335 171.108 342.295 171.299 342.295 171.514H341.608C341.608 171.21 341.675 170.931 341.808 170.679C341.942 170.426 342.14 170.226 342.403 170.077C342.665 169.926 342.988 169.851 343.372 169.851C343.714 169.851 344.006 169.911 344.248 170.033C344.491 170.151 344.677 170.32 344.805 170.538C344.937 170.753 345.002 171.006 345.002 171.295C345.002 171.454 344.975 171.615 344.92 171.778C344.868 171.939 344.795 172.1 344.701 172.261C344.61 172.422 344.502 172.58 344.378 172.736C344.257 172.892 344.127 173.046 343.988 173.197L342.54 174.768H345.251ZM346.989 172.291H347.479C347.719 172.291 347.917 172.251 348.073 172.172C348.232 172.09 348.349 171.98 348.426 171.841C348.505 171.7 348.545 171.542 348.545 171.366C348.545 171.158 348.51 170.983 348.441 170.842C348.372 170.701 348.268 170.595 348.129 170.523C347.99 170.451 347.815 170.415 347.602 170.415C347.409 170.415 347.238 170.453 347.089 170.53C346.943 170.605 346.828 170.711 346.744 170.85C346.662 170.988 346.621 171.152 346.621 171.34H345.934C345.934 171.065 346.004 170.815 346.142 170.59C346.281 170.364 346.475 170.185 346.725 170.051C346.978 169.917 347.27 169.851 347.602 169.851C347.929 169.851 348.215 169.909 348.46 170.025C348.705 170.139 348.895 170.31 349.032 170.538C349.168 170.763 349.236 171.044 349.236 171.381C349.236 171.517 349.204 171.663 349.139 171.819C349.077 171.972 348.98 172.116 348.846 172.25C348.715 172.383 348.544 172.494 348.333 172.58C348.123 172.664 347.87 172.706 347.576 172.706H346.989V172.291ZM346.989 172.855V172.443H347.576C347.92 172.443 348.205 172.484 348.43 172.565C348.655 172.647 348.832 172.756 348.961 172.892C349.092 173.028 349.184 173.178 349.236 173.341C349.29 173.502 349.317 173.663 349.317 173.824C349.317 174.077 349.274 174.301 349.188 174.496C349.103 174.692 348.983 174.858 348.827 174.994C348.674 175.13 348.493 175.233 348.285 175.302C348.077 175.372 347.851 175.406 347.605 175.406C347.37 175.406 347.149 175.373 346.941 175.306C346.735 175.239 346.553 175.143 346.395 175.016C346.236 174.888 346.113 174.73 346.023 174.545C345.934 174.357 345.89 174.142 345.89 173.902H346.577C346.577 174.09 346.618 174.255 346.699 174.396C346.784 174.537 346.902 174.647 347.056 174.727C347.212 174.803 347.395 174.842 347.605 174.842C347.816 174.842 347.997 174.806 348.148 174.734C348.301 174.66 348.419 174.548 348.5 174.4C348.585 174.251 348.627 174.064 348.627 173.839C348.627 173.614 348.58 173.429 348.486 173.286C348.392 173.14 348.258 173.032 348.085 172.963C347.914 172.891 347.712 172.855 347.479 172.855H346.989Z" fill="#474747"/>
<path d="M292.012 174.768V175.332H288.472V174.838L290.244 172.866C290.462 172.624 290.63 172.418 290.749 172.25C290.87 172.079 290.954 171.927 291.001 171.793C291.051 171.657 291.076 171.518 291.076 171.377C291.076 171.199 291.039 171.038 290.964 170.894C290.893 170.748 290.786 170.632 290.645 170.545C290.504 170.458 290.333 170.415 290.132 170.415C289.892 170.415 289.692 170.462 289.531 170.556C289.372 170.648 289.254 170.777 289.174 170.942C289.095 171.108 289.055 171.299 289.055 171.514H288.368C288.368 171.21 288.435 170.931 288.569 170.679C288.703 170.426 288.901 170.226 289.163 170.077C289.426 169.926 289.749 169.851 290.132 169.851C290.474 169.851 290.766 169.911 291.009 170.033C291.251 170.151 291.437 170.32 291.566 170.538C291.697 170.753 291.763 171.006 291.763 171.295C291.763 171.454 291.736 171.615 291.681 171.778C291.629 171.939 291.556 172.1 291.462 172.261C291.37 172.422 291.263 172.58 291.139 172.736C291.018 172.892 290.888 173.046 290.749 173.197L289.301 174.768H292.012ZM296.141 172.198V173.022C296.141 173.465 296.102 173.839 296.022 174.144C295.943 174.448 295.829 174.693 295.681 174.879C295.532 175.065 295.353 175.2 295.142 175.284C294.934 175.365 294.699 175.406 294.437 175.406C294.229 175.406 294.037 175.38 293.861 175.328C293.685 175.276 293.527 175.193 293.386 175.08C293.247 174.963 293.128 174.812 293.029 174.626C292.93 174.441 292.855 174.215 292.803 173.951C292.751 173.686 292.725 173.376 292.725 173.022V172.198C292.725 171.755 292.764 171.383 292.843 171.084C292.925 170.784 293.04 170.544 293.189 170.363C293.337 170.18 293.516 170.049 293.724 169.969C293.934 169.89 294.169 169.851 294.429 169.851C294.64 169.851 294.833 169.877 295.009 169.929C295.187 169.978 295.345 170.059 295.484 170.17C295.623 170.279 295.74 170.425 295.837 170.608C295.936 170.789 296.011 171.011 296.063 171.273C296.115 171.535 296.141 171.844 296.141 172.198ZM295.45 173.134V172.083C295.45 171.84 295.436 171.627 295.406 171.444C295.379 171.258 295.338 171.1 295.283 170.968C295.229 170.837 295.16 170.731 295.075 170.649C294.994 170.567 294.898 170.508 294.789 170.471C294.683 170.431 294.563 170.411 294.429 170.411C294.266 170.411 294.121 170.442 293.995 170.504C293.868 170.564 293.762 170.659 293.675 170.79C293.591 170.921 293.527 171.093 293.482 171.306C293.438 171.519 293.415 171.778 293.415 172.083V173.134C293.415 173.376 293.429 173.59 293.456 173.776C293.486 173.962 293.529 174.123 293.586 174.259C293.643 174.392 293.712 174.503 293.794 174.589C293.876 174.676 293.97 174.74 294.076 174.782C294.185 174.822 294.305 174.842 294.437 174.842C294.605 174.842 294.752 174.81 294.879 174.745C295.005 174.681 295.11 174.581 295.194 174.444C295.281 174.306 295.345 174.129 295.387 173.913C295.429 173.696 295.45 173.436 295.45 173.134ZM300.568 174.768V175.332H297.029V174.838L298.8 172.866C299.018 172.624 299.186 172.418 299.305 172.25C299.427 172.079 299.511 171.927 299.558 171.793C299.607 171.657 299.632 171.518 299.632 171.377C299.632 171.199 299.595 171.038 299.521 170.894C299.449 170.748 299.342 170.632 299.201 170.545C299.06 170.458 298.889 170.415 298.689 170.415C298.449 170.415 298.248 170.462 298.087 170.556C297.929 170.648 297.81 170.777 297.731 170.942C297.651 171.108 297.612 171.299 297.612 171.514H296.925C296.925 171.21 296.992 170.931 297.125 170.679C297.259 170.426 297.457 170.226 297.719 170.077C297.982 169.926 298.305 169.851 298.689 169.851C299.03 169.851 299.323 169.911 299.565 170.033C299.808 170.151 299.994 170.32 300.122 170.538C300.253 170.753 300.319 171.006 300.319 171.295C300.319 171.454 300.292 171.615 300.237 171.778C300.185 171.939 300.112 172.1 300.018 172.261C299.927 172.422 299.819 172.58 299.695 172.736C299.574 172.892 299.444 173.046 299.305 173.197L297.857 174.768H300.568ZM304.846 174.768V175.332H301.307V174.838L303.078 172.866C303.296 172.624 303.465 172.418 303.583 172.25C303.705 172.079 303.789 171.927 303.836 171.793C303.885 171.657 303.91 171.518 303.91 171.377C303.91 171.199 303.873 171.038 303.799 170.894C303.727 170.748 303.621 170.632 303.479 170.545C303.338 170.458 303.167 170.415 302.967 170.415C302.727 170.415 302.526 170.462 302.365 170.556C302.207 170.648 302.088 170.777 302.009 170.942C301.93 171.108 301.89 171.299 301.89 171.514H301.203C301.203 171.21 301.27 170.931 301.403 170.679C301.537 170.426 301.735 170.226 301.998 170.077C302.26 169.926 302.583 169.851 302.967 169.851C303.309 169.851 303.601 169.911 303.843 170.033C304.086 170.151 304.272 170.32 304.4 170.538C304.532 170.753 304.597 171.006 304.597 171.295C304.597 171.454 304.57 171.615 304.516 171.778C304.464 171.939 304.391 172.1 304.296 172.261C304.205 172.422 304.097 172.58 303.973 172.736C303.852 172.892 303.722 173.046 303.583 173.197L302.135 174.768H304.846Z" fill="#474747"/>
<rect x="51.958" y="105.048" width="16.7959" height="56.0862" fill="#6C5DD3"/>
<rect x="71.7532" y="102.948" width="16.7959" height="58.1857" fill="#A0D7E7"/>
<rect x="96.9468" y="107.147" width="16.7959" height="53.9867" fill="#6C5DD3"/>
<rect x="116.742" y="51.3608" width="16.7959" height="109.773" fill="#A0D7E7"/>
<rect x="141.936" y="131.741" width="16.7959" height="29.3928" fill="#6C5DD3"/>
<rect x="161.731" y="138.339" width="16.7959" height="22.7944" fill="#A0D7E7"/>
<rect x="186.925" y="136.84" width="16.7959" height="24.294" fill="#6C5DD3"/>
<rect x="206.72" y="97.2495" width="16.7959" height="63.8843" fill="#A0D7E7"/>
<rect x="231.914" y="29.7661" width="16.7959" height="131.368" fill="#6C5DD3"/>
<rect x="251.709" y="127.842" width="16.7959" height="33.2918" fill="#A0D7E7"/>
<rect x="276.903" y="60.0586" width="16.7959" height="101.075" fill="#6C5DD3"/>
<rect x="296.698" y="115.245" width="16.7959" height="45.8887" fill="#A0D7E7"/>
<rect x="321.892" y="159.035" width="16.7959" height="2.09948" fill="#6C5DD3"/>
<rect x="341.686" y="140.739" width="16.7959" height="20.395" fill="#A0D7E7"/>
<defs>
<linearGradient id="paint0_linear_148_4500" x1="52.2465" y1="181.837" x2="13.2362" y2="202.292" gradientUnits="userSpaceOnUse">
<stop stop-color="#26BBFB"/>
<stop offset="0.505217" stop-color="#581DB6"/>
<stop offset="0.973958" stop-color="#29B3F7"/>
<stop offset="1" stop-color="#26BBFB"/>
</linearGradient>
</defs>
</svg>
