<svg width="289" height="241" viewBox="0 0 289 241" fill="none" xmlns="http://www.w3.org/2000/svg">
  <path d="M265.138 40.7845C278.449 42.7062 288.289 53.6416 288.097 67.1236C288.08 68.3689 287.849 70.594 287.405 73.7991C282.588 108.477 277.775 143.155 272.966 177.835C272.754 179.37 272.63 181.205 271.898 182.488C269.532 186.63 263.394 185.838 262.262 181.161C262.092 180.465 262.098 179.46 262.279 178.148C267.361 141.577 272.44 105.006 277.515 68.4338C278.607 60.5556 272.737 53.1679 265.236 51.515C263.867 51.2149 261.64 51.0648 258.553 51.0648C181.31 51.0693 104.066 51.0704 26.8231 51.0682C18.6492 51.0682 11.8461 57.0785 11.0062 65.2321C10.8673 66.5715 10.9871 68.6018 11.3657 71.3231C18.0154 119.228 24.6685 167.134 31.3249 215.039C32.2925 222 36.4483 227.416 43.4059 229.059C44.7901 229.386 47.0175 229.549 50.0882 229.549C113.362 229.547 176.636 229.546 239.908 229.546C241.686 229.546 242.949 229.713 243.697 230.046C247.665 231.817 247.672 237.992 243.526 239.638C242.843 239.909 241.74 240.044 240.217 240.044C175.861 240.044 111.505 240.044 47.1485 240.044C33.9521 240.044 22.8319 230.402 21.0177 217.367C14.4464 170.102 7.88289 122.835 1.32723 75.5662C0.765063 71.5123 0.469421 69.2916 0.440304 68.9042C-0.607884 54.7973 9.28943 42.7667 23.3459 40.8047C23.4646 40.7867 23.5251 40.7173 23.5273 40.5964C23.5609 31.4549 30.5556 24.6216 39.6735 24.6216C73.2894 24.6149 106.905 24.6104 140.521 24.6081C140.633 24.6081 140.716 24.56 140.77 24.4637C143.039 20.4613 145.319 16.4735 147.61 12.5002C149.079 9.95141 150.33 8.10253 151.363 6.95355C155.508 2.32629 160.812 0.011544 167.274 0.00930426C194.341 -0.00413405 221.406 -0.00301603 248.471 0.012662C257.357 0.0160216 264.826 6.2682 264.933 15.5104C265.031 23.8589 265.007 32.2411 264.973 40.593C264.974 40.6393 264.99 40.6839 265.021 40.719C265.051 40.7541 265.092 40.7773 265.138 40.7845Z" fill="#DADADA" fill-opacity="0.6"/>
  <path d="M222.707 182.431C210.303 192.046 194.718 195.9 179.297 193.229C155.364 189.086 136.56 169.124 134.067 144.915C131.867 123.511 141.895 102.974 160.302 91.793C189.349 74.1552 227.497 86.9821 240.055 118.492C246.973 135.844 244.614 155.444 233.921 170.679C233.871 170.751 233.848 170.838 233.855 170.924C233.863 171.011 233.9 171.092 233.961 171.153C248.315 185.505 262.589 199.78 276.782 213.977C278.059 215.254 278.892 216.311 279.282 217.149C282.332 223.697 275.304 230.685 268.753 227.506C267.835 227.061 266.577 226.037 264.98 224.436C251 210.424 237 196.428 222.982 182.448C222.895 182.36 222.803 182.355 222.707 182.431ZM228.189 138.945C228.189 128.514 224.046 118.51 216.67 111.134C209.294 103.758 199.29 99.6141 188.859 99.6141C178.428 99.6141 168.424 103.758 161.048 111.134C153.672 118.51 149.528 128.514 149.528 138.945C149.528 149.376 153.672 159.38 161.048 166.756C168.424 174.132 178.428 178.275 188.859 178.275C199.29 178.275 209.294 174.132 216.67 166.756C224.046 159.38 228.189 149.376 228.189 138.945Z" fill="#DADADA" fill-opacity="0.6"/>
  <path d="M110.093 171.886L68.125 171.959C62.3231 171.969 57.6278 176.681 57.638 182.483L57.6563 192.985C57.6664 198.787 62.3781 203.482 68.18 203.472L110.148 203.399C115.95 203.388 120.645 198.677 120.635 192.875L120.617 182.373C120.606 176.571 115.895 171.876 110.093 171.886Z" fill="#DADADA" fill-opacity="0.6"/>
  </svg>
