<svg width="79" height="80" viewBox="0 0 79 80" fill="none" xmlns="http://www.w3.org/2000/svg">
  <g clip-path="url(#clip0_729_1323)">
  <rect opacity="0.1" y="79" width="80" height="1" fill="white"/>
  <path d="M49.1821 39.1026H34.5812C34.2914 39.1026 34.0378 38.8458 34.074 38.5523C34.2552 36.5711 35.4145 30.1505 41.9722 30.2239C48.5299 30.2973 49.5444 36.6078 49.6893 38.5523C49.7255 38.8458 49.4719 39.1026 49.1821 39.1026Z" fill="white"/>
  <path d="M21.4296 46.9171L46.972 47.1373C47.2256 47.1373 47.443 47.3574 47.443 47.6142V49.3386C47.443 49.5954 47.2256 49.8156 46.972 49.8156H15.4154C15.3429 49.8156 15.2705 49.8156 15.198 49.8156C14.4372 49.8156 9.18378 49.7422 9.61854 44.2022C9.61854 44.2022 10.1258 39.4326 15.8139 39.1758C16.1038 39.1758 16.3211 39.4326 16.2849 39.6894C16.1762 40.57 16.0675 42.331 17.0095 43.9453C18.3138 46.1834 20.0891 46.8805 21.4296 46.9171Z" fill="white"/>
  <path fill-rule="evenodd" clip-rule="evenodd" d="M63.2756 38.2222L63.4568 38.4057C65.3045 40.5336 64.0365 43.909 61.2467 44.2392C61.0656 44.2759 60.8482 44.2759 60.6308 44.2759H42.5519V44.276H23.205C22.9876 44.276 22.7702 44.2759 22.5891 44.2393C19.7993 43.9091 18.5313 40.5337 20.3428 38.4057L20.5239 38.2223C21.5384 37.1583 22.9514 36.608 24.4006 36.608H30.451C30.7046 36.608 30.8858 36.7914 30.8858 37.0482V38.3323C30.8858 38.5892 30.6684 38.8093 30.4148 38.8093H29.6902C29.4366 38.8093 29.183 38.8093 28.9294 38.7726C28.1685 38.7359 26.1759 38.6992 26.1759 40.02C26.1759 40.9739 27.2628 41.4509 28.0961 41.671C28.567 41.7811 29.0743 41.8545 29.5815 41.8545H41.2838V41.8544H54.2543C54.7615 41.8544 55.2687 41.781 55.7397 41.671C56.573 41.4508 57.6599 40.9739 57.6599 40.02C57.6599 38.6992 55.6673 38.7359 54.9064 38.7726C54.6528 38.8092 54.3992 38.8092 54.1456 38.8092H53.3848C53.1311 38.8092 52.9138 38.5891 52.9138 38.3323V37.0482C52.9138 36.7914 53.0949 36.6079 53.3485 36.6079H59.399C60.8482 36.6079 62.2612 37.1582 63.2756 38.2222Z" fill="white"/>
  <path d="M20.3427 34.4063C20.3427 35.2868 19.6181 36.0206 18.7485 36.0206C17.879 36.0206 17.1544 35.2868 17.1544 34.4063C17.1544 33.5258 17.879 32.792 18.7485 32.792C19.6543 32.8287 20.3427 33.5258 20.3427 34.4063Z" fill="white"/>
  <path d="M69 37.2314C69 38.1119 68.2754 38.8457 67.4059 38.8457C66.5364 38.8457 65.8118 38.1119 65.8118 37.2314C65.8118 36.3508 66.5364 35.6171 67.4059 35.6171C68.3117 35.6171 69 36.3508 69 37.2314Z" fill="white"/>
  <path d="M52.7326 48.4214C52.7326 49.302 52.008 50.0358 51.1384 50.0358C50.2689 50.0358 49.5443 49.302 49.5443 48.4214C49.5443 47.5409 50.2689 46.8071 51.1384 46.8071C52.0442 46.8071 52.7326 47.5409 52.7326 48.4214Z" fill="white"/>
  </g>
  <defs>
  <clipPath id="clip0_729_1323">
  <rect width="79" height="80" fill="white"/>
  </clipPath>
  </defs>
  </svg>
