<svg width="24" height="25" viewBox="0 0 24 25" fill="none" xmlns="http://www.w3.org/2000/svg">
<g id="Group">
<g id="Group_2">
<path id="Path" fill-rule="evenodd" clip-rule="evenodd" d="M18.414 7.0329L15.586 4.2049C15.211 3.8299 14.702 3.6189 14.172 3.6189H7C5.895 3.6189 5 4.5139 5 5.6189V19.6189C5 20.7239 5.895 21.6189 7 21.6189H17C18.105 21.6189 19 20.7239 19 19.6189V8.4469C19 7.9169 18.789 7.4079 18.414 7.0329V7.0329Z" stroke="#23ABF4" stroke-width="1.5" stroke-linecap="round" stroke-linejoin="round"/>
<path id="Path_2" d="M19 8.6189H15C14.448 8.6189 14 8.1709 14 7.6189V3.6189" stroke="#22A6F2" stroke-width="1.5" stroke-linecap="round" stroke-linejoin="round"/>
<path id="Path_3" d="M10.3398 17.1689H13.6598" stroke="#22A6F2" stroke-width="1.5" stroke-linecap="round" stroke-linejoin="round"/>
<path id="Path_4" fill-rule="evenodd" clip-rule="evenodd" d="M10.833 13.3699V12.2019C10.833 11.8799 11.094 11.6189 11.416 11.6189H12.584C12.906 11.6189 13.167 11.8799 13.167 12.2019V13.3699C13.167 13.6919 12.906 13.9529 12.584 13.9529H11.416C11.094 13.9519 10.833 13.6909 10.833 13.3699Z" stroke="#22A6F2" stroke-width="1.5" stroke-linecap="round" stroke-linejoin="round"/>
<path id="Path_5" fill-rule="evenodd" clip-rule="evenodd" d="M8 18.0359V16.8679C8 16.5459 8.261 16.2849 8.583 16.2849H9.751C10.073 16.2849 10.334 16.5459 10.334 16.8679V18.0359C10.334 18.3579 10.073 18.6189 9.751 18.6189H8.583C8.261 18.6189 8 18.3579 8 18.0359Z" stroke="#23ABF4" stroke-width="1.5" stroke-linecap="round" stroke-linejoin="round"/>
<path id="Path_6" fill-rule="evenodd" clip-rule="evenodd" d="M13.667 18.0359V16.8679C13.667 16.5459 13.928 16.2849 14.25 16.2849H15.418C15.74 16.2849 16.001 16.5459 16.001 16.8679V18.0359C16 18.3579 15.739 18.6189 15.417 18.6189H14.249C13.928 18.6189 13.667 18.3579 13.667 18.0359H13.667Z" stroke="#23ABF4" stroke-width="1.5" stroke-linecap="round" stroke-linejoin="round"/>
<path id="Path_7" d="M14.24 16.289L12.73 13.929" stroke="#23ABF4" stroke-width="1.5" stroke-linecap="round" stroke-linejoin="round"/>
<path id="Path_8" d="M9.75977 16.289L11.2698 13.929" stroke="#23ABF4" stroke-width="1.5" stroke-linecap="round" stroke-linejoin="round"/>
</g>
</g>
</svg>
