<svg width="25" height="25" viewBox="0 0 25 25" fill="none" xmlns="http://www.w3.org/2000/svg">
<g id="Group">
<path id="Path" d="M8.94482 13.1471H11.9461" stroke="#22A6F2" stroke-width="1.5" stroke-linecap="round" stroke-linejoin="round"/>
<path id="Path_2" fill-rule="evenodd" clip-rule="evenodd" d="M4.94288 9.14536V20.1459C4.94141 20.4987 5.1262 20.826 5.42897 21.007C5.73174 21.1879 6.10754 21.1957 6.4175 21.0273C8.04718 20.1379 10.4452 18.8304 10.4452 18.8304C10.4452 18.8304 12.8432 20.1389 14.4729 21.0273C14.7828 21.1957 15.1586 21.1879 15.4614 21.007C15.7642 20.826 15.949 20.4987 15.9475 20.1459V9.14536C15.9476 8.61467 15.7369 8.10566 15.3616 7.7304C14.9863 7.35514 14.4773 7.14439 13.9466 7.14453H6.94371C5.83871 7.14453 4.94288 8.04036 4.94288 9.14536Z" stroke="#22A6F2" stroke-width="1.5" stroke-linecap="round" stroke-linejoin="round"/>
<path id="Path_3" d="M15.9476 15.1478L19.4701 17.0696C19.7801 17.2387 20.1563 17.2319 20.4599 17.0516C20.7636 16.8714 20.9497 16.5444 20.9497 16.1913V5.14366C20.9498 4.61296 20.7391 4.10395 20.3638 3.72869C19.9886 3.35343 19.4796 3.14268 18.9489 3.14282H12.4461C11.9154 3.14268 11.4064 3.35343 11.0312 3.72869C10.6559 4.10395 10.4452 4.61296 10.4453 5.14366V7.14449" stroke="#22A6F2" stroke-width="1.5" stroke-linecap="round" stroke-linejoin="round"/>
</g>
</svg>
