<svg width="25" height="25" viewBox="0 0 25 25" fill="none" xmlns="http://www.w3.org/2000/svg">
<path fill-rule="evenodd" clip-rule="evenodd" d="M12.3641 2.66284C7.0558 2.66284 2.75256 6.87103 2.75256 12.0621C2.75256 17.2532 7.0558 21.4614 12.3641 21.4614C14.6344 21.4614 16.7209 20.6916 18.3655 19.4044L21.4896 22.4515L21.5727 22.5215C21.8628 22.7314 22.274 22.7075 22.5364 22.4502C22.8251 22.1671 22.8245 21.7088 22.5351 21.4265L19.4477 18.4151C21.0175 16.7422 21.9756 14.5116 21.9756 12.0621C21.9756 6.87103 17.6724 2.66284 12.3641 2.66284ZM12.3641 4.11058C16.8548 4.11058 20.4952 7.6706 20.4952 12.0621C20.4952 16.4536 16.8548 20.0136 12.3641 20.0136C7.87342 20.0136 4.233 16.4536 4.233 12.0621C4.233 7.6706 7.87342 4.11058 12.3641 4.11058Z" fill="#11142D"/>
</svg>
