<svg width="182" height="69" viewBox="0 0 182 69" fill="none" xmlns="http://www.w3.org/2000/svg">
<path d="M5.64655 62.6871H16.4564C19.0638 62.6871 20.965 61.1118 20.965 58.2871C20.965 55.4625 19.0638 53.8872 16.4564 53.8872H5.64655V62.6871ZM5.64655 48.8896H15.2613C17.5428 48.8896 19.3897 47.5859 19.3897 44.8156C19.3897 42.1539 17.5428 40.8502 15.2613 40.8502H5.64655V48.8896ZM0.160156 67.9562V35.5811H15.3157C21.0193 35.5811 25.1477 39.1119 25.1477 44.381C25.1477 47.2057 24.3329 49.2156 21.6712 51.0082C24.5502 52.2575 26.723 55.0279 26.723 58.776C26.723 64.7513 22.4317 67.9562 16.5107 67.9562H0.160156Z" fill="white"/>
<path d="M32.1007 35.5811H37.6414V62.5785H53.0685V67.9562H32.1007V35.5811Z" fill="white"/>
<path d="M79.6858 53.7241V50.2476C79.6858 44.055 76.5896 40.4155 71.2661 40.4155C65.8884 40.4155 62.7921 44.1093 62.7921 50.2476V53.7241H79.6858ZM57.2513 50.2476C57.2513 40.7957 62.4118 35.092 71.2661 35.092C80.0661 35.092 85.2266 40.7957 85.2266 50.2476V67.9561H79.7401V59.1018H62.7921V67.9561H57.3057V50.2476H57.2513Z" fill="white"/>
<path d="M116.081 62.5787V67.9022H90.0612L90.1155 67.359C90.6587 61.0578 97.1229 53.996 101.251 49.5417C104.565 45.9566 106.846 43.2949 108.313 40.6875C107.064 40.7961 106.086 40.7961 105.434 40.7961H91.8538V35.4727H116.027L115.972 36.3961C115.701 42.2628 110.051 48.8356 105.706 53.2356C101.794 57.1467 99.35 60.08 97.829 62.8503L97.8834 62.796C98.9155 62.5787 100.382 62.4701 101.36 62.4701H116.081V62.5787Z" fill="white"/>
<path d="M143.404 53.7241V50.2476C143.404 44.055 140.308 40.4155 134.984 40.4155C129.607 40.4155 126.51 44.1093 126.51 50.2476V53.7241H143.404ZM120.97 50.2476C120.97 40.7957 126.13 35.092 134.984 35.092C143.784 35.092 148.945 40.7957 148.945 50.2476V67.9561H143.404V59.1018H126.456V67.9561H120.97V50.2476Z" fill="white"/>
<path d="M160.678 40.7958V53.1267H169.152C172.9 53.1267 175.29 50.9538 175.29 46.8798C175.29 42.9687 172.574 40.7958 169.315 40.7958H160.678ZM175.236 58.9933C176.703 61.5464 178.332 62.9044 181.266 63.4476V68.2278C176.105 68.0106 173.661 66.4353 170.836 61.8723L168.555 58.1785H160.678V67.9019H155.192V35.5267H169.315C175.725 35.5267 181.103 39.4378 181.103 46.8798C181.103 51.9859 177.626 55.4625 174.041 56.8748L175.236 58.9933Z" fill="white"/>
<path d="M106.52 13.1466H84.629C84.1944 13.1466 83.8141 12.7663 83.8685 12.3317C84.1401 9.39842 85.8784 -0.107718 95.7104 0.000923632C105.542 0.109565 107.063 9.45274 107.281 12.3317C107.335 12.7663 106.955 13.1466 106.52 13.1466Z" fill="white"/>
<path d="M64.9105 24.7167L103.207 25.0426C103.587 25.0426 103.913 25.3685 103.913 25.7488V28.3019C103.913 28.6821 103.587 29.008 103.207 29.008H55.8933C55.7846 29.008 55.676 29.008 55.5674 29.008C54.4266 29.008 46.5501 28.8994 47.202 20.6969C47.202 20.6969 47.9625 13.6353 56.4908 13.255C56.9254 13.255 57.2513 13.6352 57.197 14.0155C57.034 15.3192 56.8711 17.9266 58.2834 20.3167C60.2389 23.6303 62.9007 24.6624 64.9105 24.7167Z" fill="white"/>
<path fill-rule="evenodd" clip-rule="evenodd" d="M127.651 11.8431L127.923 12.1147C130.693 15.2653 128.792 20.2628 124.609 20.7517C124.338 20.806 124.012 20.806 123.686 20.806L96.5797 20.8061H67.5724C67.2464 20.8061 66.9205 20.8061 66.6489 20.7517C62.4662 20.2629 60.565 15.2653 63.281 12.1147L63.5526 11.8431C65.0736 10.2678 67.1921 9.45303 69.3649 9.45303H78.4365C78.8168 9.45303 79.0884 9.72463 79.0884 10.1049V12.0061C79.0884 12.3863 78.7624 12.7123 78.3822 12.7123H77.2958C76.9155 12.7123 76.5353 12.7123 76.155 12.6579C75.0143 12.6036 72.0267 12.5493 72.0267 14.5049C72.0267 15.9172 73.6563 16.6234 74.9057 16.9493C75.6118 17.1123 76.3723 17.2209 77.1328 17.2209L94.6785 17.2209H114.125C114.886 17.2209 115.646 17.1122 116.352 16.9493C117.602 16.6233 119.231 15.9172 119.231 14.5048C119.231 12.5493 116.244 12.6036 115.103 12.6579C114.723 12.7122 114.343 12.7123 113.962 12.7123H112.822C112.441 12.7123 112.115 12.3863 112.115 12.0061V10.1049C112.115 9.72461 112.387 9.453 112.767 9.453H121.839C124.012 9.453 126.13 10.2678 127.651 11.8431Z" fill="white"/>
<path d="M63.281 6.19334C63.281 7.49704 62.1945 8.58345 60.8908 8.58345C59.5871 8.58345 58.5007 7.49704 58.5007 6.19334C58.5007 4.88964 59.5871 3.80322 60.8908 3.80322C62.2489 3.85754 63.281 4.88964 63.281 6.19334Z" fill="white"/>
<path d="M136.234 10.376C136.234 11.6797 135.147 12.7661 133.844 12.7661C132.54 12.7661 131.454 11.6797 131.454 10.376C131.454 9.07226 132.54 7.98584 133.844 7.98584C135.202 7.98584 136.234 9.07226 136.234 10.376Z" fill="white"/>
<path d="M111.844 26.944C111.844 28.2477 110.757 29.3341 109.454 29.3341C108.15 29.3341 107.064 28.2477 107.064 26.944C107.064 25.6403 108.15 24.5538 109.454 24.5538C110.812 24.5538 111.844 25.6403 111.844 26.944Z" fill="white"/>
</svg>
